<svg width="40" height="40" viewBox="0 0 40 40" fill="none" xmlns="http://www.w3.org/2000/svg">
<g id="Ellipse">
<path id="Ellipse_2" d="M40 20C40 25.5228 37.7614 30.5228 34.1421 34.1421C30.5228 37.7614 25.5228 40 20 40C14.4772 40 9.47715 37.7614 5.85786 34.1421C2.23858 30.5228 0 25.5228 0 20C0 14.4772 2.23858 9.47715 5.85786 5.85786C9.47715 2.23858 14.4772 0 20 0C25.5228 0 30.5228 2.23858 34.1421 5.85786C37.7614 9.47715 40 14.4772 40 20Z" fill="#4D5AE5"/>
<g id="linkedin 1" clip-path="url(#clip0_431671_2301)">
<path id="Vector" d="M31.9941 32.0001V31.9991H32.0001V23.1971C32.0001 18.8911 31.0731 15.5741 26.0391 15.5741C23.619 15.5741 21.995 16.9021 21.332 18.1611H21.262V15.9761H16.489V31.9991H21.459V24.0651C21.459 21.9761 21.855 19.9561 24.442 19.9561C26.9911 19.9561 27.0291 22.3401 27.0291 24.1991V32.0001H31.9941Z" fill="#F4F4FD"/>
<path id="Vector_2" d="M8.39603 15.9769H13.372V31.9999H8.39603V15.9769Z" fill="#F4F4FD"/>
<path id="Vector_3" d="M10.882 8C9.29103 8 8.00003 9.291 8.00003 10.882C8.00003 12.473 9.29103 13.791 10.882 13.791C12.473 13.791 13.764 12.473 13.764 10.882C13.763 9.291 12.472 8 10.882 8V8Z" fill="#F4F4FD"/>
</g>
</g>
<defs>
<clipPath id="clip0_431671_2301">
<rect width="24" height="24" fill="white" transform="translate(8.00003 8)"/>
</clipPath>
</defs>
</svg>
